# AST/ASF file generated using VICON BodyLanguage
# -----------------------------------------------
:version 1.10
:name VICON
:units
  mass 1.0
  length 0.45
  angle deg
:documentation
   .ast/.asf automatically generated from VICON data using
   VICON BodyBuilder and BodyLanguage model FoxedUp or BRILLIANT.MOD
:root
   order TX TY TZ RX RY RZ
   axis XYZ
   position 0 0 0  
   orientation 0 0 0 
:bonedata
  begin
     id 1 
     name lhipjoint
     direction 0.611804 -0.747784 0.257906 
     length 2.29243 
     axis 0 0 0  XYZ
  end
  begin
     id 2 
     name lfemur
     direction 0.34202 -0.939693 0  
     length 7.31159  
     axis 0 0 20  XYZ
    dof rx ry rz
    limits (-160.0 20.0)
           (-70.0 70.0)
           (-60.0 70.0)
  end
  begin
     id 3 
     name ltibia
     direction 0.34202 -0.939693 0   
     length 7.33391   
     axis 0 0 20   XYZ
    dof rx
    limits (-10.0 170.0)
  end
  begin
     id 4 
     name lfoot
     direction 0.122263 -0.335914 0.933924   
     length 1.76083   
     axis -90 7.62852e-016 20   XYZ
    dof rx rz
    limits (-45.0 90.0)
           (-70.0 20.0)
  end
  begin
     id 5 
     name ltoes
     direction 1.53533e-011 -4.2177e-011 1   
     length 0.879206   
     axis -90 7.62852e-016 20   XYZ
    dof rx
    limits (-90.0 20.0)
  end
  begin
     id 6 
     name rhipjoint
     direction -0.646469 -0.721248 0.248754   
     length 2.37677  
     axis 0 0 0  XYZ 
  end
  begin
     id 7 
     name rfemur
     direction -0.34202 -0.939693 0   
     length 7.18623   
     axis 0 0 -20   XYZ
    dof rx ry rz
    limits (-160.0 20.0)
           (-70.0 70.0)
           (-70.0 60.0)
  end
  begin
     id 8 
     name rtibia
     direction -0.34202 -0.939693 0   
     length 7.36567   
     axis 0 0 -20   XYZ
    dof rx
    limits (-10.0 170.0)
 end
 begin
     id 9 
     name rfoot
     direction -0.126681 -0.348054 0.928876   
     length 1.71902  
     axis -90 -7.62852e-016 -20   XYZ
    dof rx rz
    limits (-45.0 90.0)
           (-20.0 70.0)
  end
  begin
     id 10 
     name rtoes
     direction -1.53551e-011 -4.21898e-011 1   
     length 0.857792   
     axis -90 -7.62852e-016 -20   XYZ
    dof rx
    limits (-90.0 20.0)
  end
  begin
     id 11 
     name lowerback
     direction 0.0106509 0.999778 0.0181844   
     length 2.07668   
     axis 0 0 0   XYZ
    dof rx ry rz
    limits (-20.0 45.0)
           (-30.0 30.0)
           (-30.0 30.0)
  end
  begin
     id 12 
     name upperback
     direction -0.00456018 0.999989 -0.000590935   
     length 2.08011   
     axis 0 0 0   XYZ
    dof rx ry rz
    limits (-20.0 45.0)
           (-30.0 30.0)
           (-30.0 30.0)
  end
  begin
     id 13 
     name thorax
     direction -0.00910382 0.999916 -0.00923765   
     length 2.07397   
     axis 0 0 0   XYZ
    dof rx ry rz
    limits (-20.0 45.0)
           (-30.0 30.0)
           (-30.0 30.0)
  end
  begin
     id 14 
     name lowerneck
     direction 0.00171967 0.99778 0.0665733   
     length 1.67556   
     axis 0 0 0   XYZ
    dof rx ry rz
    limits (-20.0 45.0)
           (-30.0 30.0)
           (-30.0 30.0)
  end
  begin
     id 15 
     name upperneck
     direction -0.0143166 0.991302 -0.130828   
     length 1.68462   
     axis 0 0 0   XYZ
    dof rx ry rz
    limits (-20.0 45.0)
           (-30.0 30.0)
           (-30.0 30.0)
  end
  begin
     id 16
     name head
     direction -0.00606378 0.998665 -0.0512995  
     length 1.69269  
     axis 0 0 0   XYZ
    dof rx ry rz
    limits (-20.0 45.0)
           (-30.0 30.0)
           (-30.0 30.0)
  end
  begin
     id 17 
     name lclavicle
     direction 0.9638 0.179341 0.197297  
     length 4.12888  
     axis 0 0 0   XYZ
    dof ry rz
    limits (-20.0 10.0)
           (0.0 20.0)
  end
  begin
     id 18 
     name lhumerus
     direction 1 -4.48972e-011 -2.47351e-027   
     length 5.01834   
     axis -180 -30 -90   XYZ
    dof rx ry rz
    limits (-60.0 90.0)
           (-90.0 90.0)
           (-90.0 90.0)
  end
  begin
     id 19
     name lradius
     direction 1 -4.48965e-011 1.51591e-026   
     length 3.4869   
     axis -180 -30 -90   XYZ
    dof rx
    limits (-10.0 170.0)
  end
  begin
     id 20
     name lwrist
     direction 1 -4.48957e-011 2.70032e-026   
     length 1.74345   
     axis -1.81515e-014 90 90   XYZ
    dof ry
    limits (-180.0 0.0)
 end
  begin
     id 21 
     name lhand
     direction 1 -4.48951e-011 5.40064e-026   
     length 0.76799   
     axis -3.44607e-014 90 90   XYZ
    dof rx rz
    limits (-90.0 90.0)
           (-45.0 45.0)
  end
  begin
     id 22 
     name lfingers
     direction 1 -4.48971e-011 1.08013e-025   
     length 0.619174   
     axis -6.89214e-014 90 90   XYZ
    dof rx
    limits (0.0 90.0)
  end
  begin
     id 23
     name lthumb
     direction 0.707107 -6.34931e-011 0.707107   
     length 0.889013   
     axis -90 45 2.85299e-015   XYZ
    dof rx rz
    limits (-45.0 45.0)
           (-45.0 45.0)
  end
  begin
     id 24 
     name rclavicle
     direction -0.961409 0.252588 0.109054   
     length 4.04305  
     axis 0 0 0   XYZ 
    dof ry rz
    limits (-10.0 20.0)
           (-20.0 0.0)
  end
  begin
     id 25 
     name rhumerus
     direction -1 -4.4897e-011 1.33872e-017  
     length 4.70164   
     axis -180 30 90   XYZ
    dof rx ry rz
    limits (-90.0 60.0)
           (-90.0 90.0)
           (-90.0 90.0)
  end
  begin
     id 26 
     name rradius
     direction -1 -4.48954e-011 1.83844e-026   
     length 3.49911   
     axis -180 30 90   XYZ
    dof rx
    limits (-10.0 170.0)
  end
  begin
     id 27 
     name rwrist
     direction -1 -4.49008e-011 2.70032e-026   
     length 1.74955   
     axis -1.81515e-014 -90 -90   XYZ
    dof ry
    limits (-180.0 0.0)
  end
  begin
     id 28
     name rhand
     direction -1 -4.48916e-011 5.40064e-026   
     length 0.739335   
     axis -3.44607e-014 -90 -90   XYZ
    dof rx rz
    limits (-90.0 90.0)
           (-45.0 45.0)
  end
  begin
     id 29
     name rfingers
     direction -1 -4.48987e-011 1.08013e-025   
     length 0.596071   
     axis -6.89214e-014 -90 -90   XYZ
    dof rx
    limits (0.0 90.0)
  end
  begin
     id 30
     name rthumb
     direction -0.707107 -6.34935e-011 0.707107   
     length 0.855843   
     axis -90 -45 -2.85299e-015   XYZ
    dof rx rz
    limits (-45.0 45.0)
           (-45.0 45.0)
  end
:hierarchy
  begin
    root lhipjoint rhipjoint lowerback
    lhipjoint lfemur
    lfemur ltibia
    ltibia lfoot
    lfoot ltoes
    rhipjoint rfemur
    rfemur rtibia
    rtibia rfoot
    rfoot rtoes
    lowerback upperback
    upperback thorax
    thorax lowerneck lclavicle rclavicle
    lowerneck upperneck
    upperneck head
    lclavicle lhumerus
    lhumerus lradius
    lradius lwrist
    lwrist lhand lthumb
    lhand lfingers
    rclavicle rhumerus
    rhumerus rradius
    rradius rwrist
    rwrist rhand rthumb
    rhand rfingers
  end

#!OML:ASF I:\salsa\salsa 7_09\Patient 1\Session 1\dancermale.ASF
:FULLY-SPECIFIED
:DEGREES
423
root 5.84614 16.9395 -5.57497 360.988 71.741 357.49
lowerback -6.02851 3.54473 2.27288
upperback -1.2636 4.69837 -3.24208
thorax 2.52431 2.39011 -4.23007
lowerneck -10.0784 -6.88878 -3.45862
upperneck 20.6903 -8.88407 0.939849
head 8.27658 -4.29827 -0.00925986
rclavicle 2.11706e-014 3.10104e-014
rhumerus 30.3586 49.2211 -49.0896
rradius 75.2998
rwrist 37.1455
rhand -9.57266 17.3518
rfingers 7.12502
rthumb 16.3951 -11.9753
lclavicle 2.11706e-014 3.10104e-014
lhumerus -23.8057 -43.3613 115.088
lradius 65.0236
lwrist 34.4555
lhand -17.5137 54.7422
lfingers 7.12502
lthumb 8.73966 444.541
rfemur -16.4447 -7.54592 31.0801
rtibia 29.4579
rfoot -21.7683 -15.3338
rtoes 16.681
lfemur -43.7281 5.74199 -16.5788
ltibia 64.0313
lfoot -1.99561 3.45631
ltoes 8.55949
424
root 5.96083 16.9164 -5.48313 361.774 71.5964 358.34
lowerback -6.00705 3.45416 1.72033
upperback -1.22065 4.61492 -3.27092
thorax 2.5081 2.34474 -3.95779
lowerneck -10.0535 -6.90678 -3.77908
upperneck 20.6975 -8.84568 0.920106
head 8.28921 -4.3073 0.0395686
rclavicle -6.2965e-014 2.70347e-014
rhumerus 29.3873 51.5126 -49.2224
rradius 75.9352
rwrist 38.0718
rhand -9.07903 16.9969
rfingers 7.12502
rthumb 16.8704 -12.2903
lclavicle -6.2965e-014 2.70347e-014
lhumerus -24.1025 -44.3531 115.942
lradius 64.5597
lwrist 34.5469
lhand -17.9111 54.585
lfingers 7.12502
lthumb 8.35611 444.4
rfemur -16.3331 -8.22051 30.9061
rtibia 30.3117
rfoot -22.5236 -14.7323
rtoes 16.5562
lfemur -44.2911 7.87185 -17.8889
ltibia 59.8891
lfoot -1.69149 4.5739
ltoes 14.8418
425
root 6.07821 16.8943 -5.39084 362.534 71.5963 359.209
lowerback -6.04759 3.35709 1.39375
upperback -1.1153 4.51787 -3.48335
thorax 2.62383 2.2988 -3.99833
lowerneck -9.95833 -6.89005 -3.83208
upperneck 20.6273 -8.84582 1.05991
head 8.25772 -4.2999 0.098527
rclavicle 2.40654e-014 -2.38542e-014
rhumerus 28.4825 53.555 -49.4993
rradius 76.2933
rwrist 38.9417
rhand -8.74201 16.7518
rfingers 7.12502
rthumb 17.1948 -12.5074
lclavicle 2.40654e-014 -2.38542e-014
lhumerus -24.4136 -45.6017 116.555
lradius 64.0619
lwrist 34.4974
lhand -18.2939 54.6138
lfingers 7.12502
lthumb 7.98664 444.443
rfemur -16.0963 -8.64955 30.718
rtibia 31.0012
rfoot -23.1351 -14.6173
rtoes 16.858
lfemur -44.7274 10.249 -19.5313
ltibia 56.4093
lfoot -0.537915 4.96415
ltoes 16.1781
426
root 6.20116 16.8723 -5.30025 362.78 71.7845 359.673
lowerback -5.97387 3.2339 1.28838
upperback -1.01166 4.37273 -3.70926
thorax 2.68803 2.23047 -4.18857
lowerneck -9.83459 -6.9513 -3.72815
upperneck 20.5897 -8.94092 1.0001
head 8.21692 -4.34503 0.057859
rclavicle -6.74625e-015 -1.51076e-014
rhumerus 27.6221 55.5456 -49.7813
rradius 76.3984
rwrist 39.9045
rhand -8.4158 16.6536
rfingers 7.12502
rthumb 17.5087 -12.5779
lclavicle -6.74625e-015 -1.51076e-014
lhumerus -24.7439 -46.7909 117.132
lradius 63.4426
lwrist 34.2103
lhand -17.9578 54.6694
lfingers 7.12502
lthumb 8.31104 444.486
rfemur -15.6092 -8.64682 30.6947
rtibia 31.46
rfoot -23.5703 -14.9916
rtoes 17.1989
lfemur -44.4588 12.4801 -21.2013
ltibia 53.0865
lfoot 1.8021 5.26646
ltoes 15.1631
427
root 6.32921 16.853 -5.20205 362.956 71.984 360.105
lowerback -5.96763 3.11672 1.03057
upperback -0.897365 4.24213 -3.83663
thorax 2.7829 2.16687 -4.18528
lowerneck -9.88545 -7.05948 -3.77161
upperneck 20.8792 -9.06997 0.942608
head 8.32643 -4.4102 0.024651
rclavicle 2.72211e-014 -1.90833e-014
rhumerus 26.8438 57.3656 -50.0065
rradius 76.4415
rwrist 40.6823
rhand -7.14889 17.2254
rfingers 7.12502
rthumb 18.7276 -11.8931
lclavicle 2.72211e-014 -1.90833e-014
lhumerus -24.8665 -47.7916 117.672
lradius 62.6433
lwrist 33.9198
lhand -17.2605 54.3743
lfingers 7.12502
lthumb 8.98394 444.163
rfemur -15.0056 -8.20731 30.7389
rtibia 31.9363
rfoot -24.0974 -15.576
rtoes 17.2755
lfemur -44.1276 15.1689 -23.2323
ltibia 51.0684
lfoot 4.00121 5.73882
ltoes 13.2961
428
root 6.45561 16.8339 -5.09835 363.008 72.3046 360.411
lowerback -6.03196 2.97037 0.710937
upperback -0.781838 4.07615 -3.91585
thorax 2.9083 2.0842 -4.09683
lowerneck -9.75015 -7.18155 -4.03231
upperneck 21.1215 -9.2485 1.18788
head 8.41471 -4.48698 0.12757
rclavicle 2.09221e-014 2.8625e-014
rhumerus 26.156 59.097 -50.1358
rradius 76.5083
rwrist 41.3934
rhand -6.107 17.5571
rfingers 7.12502
rthumb 19.7295 -11.4617
lclavicle 2.09221e-014 2.8625e-014
lhumerus -24.8376 -48.7388 118.217
lradius 61.6705
lwrist 33.7663
lhand -16.5944 53.8465
lfingers 7.12502
lthumb 9.62665 443.607
rfemur -14.4512 -7.80281 30.8455
rtibia 32.5809
rfoot -24.8251 -16.1302
rtoes 17.5617
lfemur -43.7816 17.8191 -25.2016
ltibia 49.3729
lfoot 6.13707 6.52907
ltoes 12.7986
429
root 6.57768 16.8104 -5.00627 363.425 73.1764 360.932
lowerback -6.16187 2.66272 0.447216
upperback -0.740137 3.69574 -4.05807
thorax 2.98696 1.89524 -4.12511
lowerneck -9.7043 -7.36842 -4.26367
upperneck 21.588 -9.52099 1.42456
head 8.59776 -4.60168 0.20511
rclavicle -3.72721e-016 -2.70347e-014
rhumerus 25.3364 60.7947 -50.354
rradius 76.655
rwrist 42.0659
rhand -5.76378 17.2814
rfingers 7.12502
rthumb 20.0594 -11.7031
lclavicle -3.72721e-016 -2.70347e-014
lhumerus -24.8912 -49.7819 118.892
lradius 60.716
lwrist 33.9647
lhand -16.3077 53.4741
lfingers 7.12502
lthumb 9.90331 443.221
rfemur -14.3648 -8.42499 30.8015
rtibia 33.5524
rfoot -25.4619 -16.4055
rtoes 17.2376
lfemur -43.814 19.9091 -27.42
ltibia 49.2067
lfoot 6.89683 8.02834
ltoes 10.4176
